<?xml version="1.0" encoding="UTF-8"?>
<svg xmlns="http://www.w3.org/2000/svg" viewBox="0 0 500 500">
  <defs></defs>
  <path d="M 157.17 192.341 L 105.801 192.288 C 98.544 185.45 94.013 175.75 94.013 164.991 C 94.013 144.28 110.802 127.491 131.513 127.491 C 135.235 127.491 138.83 128.033 142.223 129.043 L 168.809 168.922 C 167.851 178.126 163.562 186.341 157.17 192.341 Z" style="stroke: rgb(0, 0, 0); stroke-width: 0px; stroke-linejoin: round; stroke-linecap: round; fill: rgb(255, 113, 0);"></path>
  <path d="M 259.933 478.434 C 128.601 478.434 22.135 373.62 22.135 244.325 C 22.135 115.03 128.601 10.216 259.933 10.216 C 325.611 10.216 384.36 36.93 427.395 79.31 L 393.365 128.619 L 397.407 131.012 C 404.149 135.43 412.044 142.713 415.798 149.459 C 419.601 156.128 421.769 166.733 422.116 174.806 L 422.112 302.178 C 421.765 310.242 419.592 320.694 415.788 327.372 C 415.547 327.805 415.289 328.241 415.014 328.678 C 418.688 321.81 420.853 311.39 421.184 303.46 L 421.185 175.765 C 420.845 167.615 418.567 156.794 414.705 149.943 C 410.827 143.068 402.73 135.561 395.928 131.126 L 287.92 67.278 C 280.737 63.454 270.167 59.966 262.3 59.966 C 254.433 59.966 243.903 63.432 236.718 67.257 L 128.708 131.103 C 121.908 135.538 113.772 143.069 109.896 149.944 C 106.034 156.795 103.757 167.574 103.417 175.724 L 103.416 303.419 C 103.756 311.569 106.035 322.393 109.898 329.245 C 113.774 336.121 121.872 343.624 128.673 348.059 L 207.723 394.788 L 164.325 457.012 C 194.021 470.17 226.955 477.49 261.623 477.49 C 307.002 477.49 349.41 464.948 385.475 443.187 C 349.04 465.528 306.017 478.434 259.933 478.434 Z M 262.34 107.758 L 262.352 107.752 L 365.38 168.744 L 236.058 354.162 L 263.715 370.531 L 263.688 370.547 L 263.586 370.679 C 262.63 371.918 262.359 372.723 262.301 373.086 L 262.303 373.108 C 262.302 373.102 262.301 373.095 262.3 373.087 C 262.299 373.095 262.298 373.102 262.297 373.11 L 262.3 373.086 C 262.243 372.722 261.972 371.919 261.015 370.679 L 260.913 370.547 L 152.886 306.69 L 152.815 306.662 C 152.311 306.461 152.009 306.357 151.818 306.297 C 151.724 306.267 151.656 306.248 151.622 306.237 C 151.626 306.245 151.608 306.251 151.587 306.255 C 151.589 306.249 151.591 306.241 151.593 306.231 L 151.668 305.799 L 151.411 305.52 C 151.405 305.507 151.4 305.496 151.394 305.485 L 151.272 305.228 L 151.032 305.085 C 150.964 305.045 150.865 305.064 150.929 305.012 C 150.792 304.96 150.99 304.688 151.152 303.504 L 151.16 303.444 L 151.16 260.924 L 273.659 261.01 L 273.695 211.01 L 151.16 210.924 L 151.16 175.741 C 151.16 175.741 151.176 173.528 151.181 173.496 L 152.888 172.493 L 262.34 107.758 Z" style="fill: rgb(255, 247, 247);"></path>
  <path d="M 247.875 87.956 L 139.287 151.803 C 130.23766666666666 157.12366666666665 125.713 165.10433333333333 125.713 175.745 L 125.713 303.439 C 125.713 314.08033333333333 130.23766666666666 322.061 139.287 327.381 L 247.875 391.228 C 256.9243333333333 396.5486666666667 265.9736666666667 396.5486666666667 275.023 391.228 L 383.611 327.381 C 392.6603333333333 322.0603333333333 397.185 314.07966666666664 397.185 303.439 L 397.185 175.745 C 397.185 165.10433333333333 392.6603333333333 157.12366666666665 383.611 151.803 L 275.023 87.956 C 265.9736666666667 82.63533333333334 256.9243333333333 82.63533333333334 247.875 87.956 Z" style="fill: none; paint-order: stroke; filter: none; stroke-miterlimit: 1; stroke-linejoin: round; stroke-linecap: round; stroke-dashoffset: -21px; stroke-width: 48px;"></path>
  <path d="M 497.308 244.675 C 497.308 374.067 390.923 478.96 259.691 478.96 C 185.006 478.96 118.778 444.987 75.217 391.86 L 116.04 337.308 C 119.887 341.533 125.429 344.476 129.693 347.271 L 237.289 410.958 C 244.448 414.754 254.869 418.219 262.584 418.219 C 270.304 418.219 280.565 414.843 287.718 411.049 L 395.319 347.369 C 402.069 342.944 410.108 335.585 413.856 328.842 C 417.66 322.164 419.833 311.712 420.18 303.648 L 420.184 176.276 C 419.837 168.203 417.669 157.598 413.866 150.929 C 410.112 144.183 402.217 136.9 395.475 132.482 L 309.613 81.659 L 350.231 27.998 C 436.552 63.102 497.308 146.893 497.308 244.675 Z M 374.184 306.425 L 262.584 372.475 L 150.984 306.425 L 150.984 291.224 L 173.906 260.941 L 271.942 261.01 L 271.977 211.01 L 211.733 210.968 L 281.671 118.573 L 374.184 173.329 L 374.184 306.425 Z" style="stroke-linejoin: round; stroke-linecap: round; fill-rule: evenodd; paint-order: stroke markers; fill: rgb(208, 208, 208);"></path>
  <path d="M 497.308 244.675 C 497.308 374.067 390.923 478.96 259.691 478.96 C 225.023 478.96 192.089 471.64 162.393 458.482 L 207.738 393.467 L 237.289 410.958 C 244.448 414.754 254.869 418.219 262.584 418.219 C 270.304 418.219 280.565 414.843 287.718 411.049 L 395.319 347.369 C 402.069 342.944 410.108 335.585 413.856 328.842 C 417.66 322.164 419.833 311.712 420.18 303.648 L 420.184 176.276 C 419.837 168.203 417.669 157.598 413.866 150.929 C 410.112 144.183 402.217 136.9 395.475 132.482 L 391.433 130.089 L 427.324 78.63 C 470.552 121.057 497.308 179.785 497.308 244.675 Z M 374.184 306.425 L 262.584 372.475 L 234.126 355.632 L 365.047 167.921 L 374.184 173.329 L 374.184 306.425 Z" style="fill: rgb(153, 153, 153);"></path>
  <line style="fill: rgb(216, 216, 216); stroke-width: 10px; stroke: rgb(255, 247, 247);" x1="274.745" y1="119.328" x2="307.82" y2="75.571"></line>
  <line style="fill: rgb(216, 216, 216); stroke: rgb(208, 208, 208); stroke-width: 10px; transform-box: fill-box; transform-origin: 50% 50%;" x1="357.19" y1="168.595" x2="390.265" y2="124.839" transform="matrix(0.999318, -0.036933, 0.036933, 0.999318, 0, 0)"></line>
  <line style="fill: rgb(216, 216, 216); stroke: rgb(208, 208, 208); stroke-width: 10px; transform-origin: 153.09px 337.794px;" x1="136.105" y1="359.905" x2="170.792" y2="308.894"></line>
  <line style="fill: rgb(216, 216, 216); stroke: rgb(208, 208, 208); stroke-width: 10px; transform-origin: 215.21px 371.386px;" x1="200.322" y1="395.332" x2="234.746" y2="345.892"></line>
  <line style="fill: rgb(216, 216, 216); stroke-width: 10px; transform-origin: 264.475px 366.844px; stroke: rgb(153, 153, 153);" x1="325.842" y1="408.085" x2="284.011" y2="341.35"></line>
  <line style="fill: rgb(216, 216, 216); stroke-width: 10px; transform-origin: 327.89px 325.441px; stroke: rgb(153, 153, 153);" x1="396.856" y1="369.302" x2="347.425" y2="299.947"></line>
  <line style="fill: rgb(216, 216, 216); stroke-width: 10px; transform-origin: 421.223px 288.845px; stroke: rgb(153, 153, 153);" x1="355.978" y1="288.913" x2="441.762" y2="289"></line>
  <line style="fill: rgb(216, 216, 216); stroke-width: 10px; transform-origin: 130.876px 290.415px; stroke: rgb(255, 247, 247);" x1="65.631" y1="290.483" x2="151.415" y2="290.57"></line>
  <line style="fill: rgb(216, 216, 216); stroke-width: 10px; transform-origin: 422.008px 190.577px; stroke: rgb(153, 153, 153);" x1="356.763" y1="190.645" x2="442.547" y2="190.732"></line>
  <line style="fill: rgb(216, 216, 216); stroke-width: 10px; transform-box: fill-box; transform-origin: 50% 50%; stroke: rgb(255, 247, 247);" x1="221.784" y1="73.962" x2="249.625" y2="118.041" transform="matrix(-1, 0, 0, -1, -0.000005, 0.000009)"></line>
  <line style="fill: rgb(216, 216, 216); stroke-width: 10px; transform-origin: 137.664px 190.633px; stroke: rgb(255, 247, 247);" x1="72.419" y1="190.701" x2="158.203" y2="190.788"></line>
  <line style="fill: rgb(216, 216, 216); stroke-width: 50px; transform-origin: 242.218px 235.855px;" x1="147.744" y1="235.923" x2="271.959" y2="236.01"></line>
  <line style="fill: rgb(216, 216, 216); stroke-width: 50px; transform-origin: 243.936px 235.855px;" x1="149.462" y1="235.923" x2="273.677" y2="236.01"></line>
  <path d="M 499.74 243.205 C 499.74 308.004 473.059 366.765 429.995 409.226 C 386.931 451.685 327.34 477.99 261.623 477.99 C 226.901 477.99 193.865 470.643 164.122 457.469 L 163.568 457.224 L 209.525 391.33 L 239.466 409.052 C 246.586 412.829 256.88 416.249 264.516 416.249 C 272.158 416.249 282.292 412.918 289.405 409.143 L 396.987 345.475 C 403.703 341.074 411.655 333.805 415.354 327.125 C 419.13 320.519 421.269 310.19 421.612 302.167 L 421.616 174.817 C 421.272 166.784 419.136 156.297 415.361 149.702 C 411.656 143.018 403.85 135.83 397.143 131.437 L 392.647 128.775 L 429.184 76.389 L 429.606 76.803 C 472.887 119.305 499.74 178.211 499.74 243.205 Z M 429.327 77.932 L 394.083 128.463 L 397.662 130.582 C 404.436 135.025 412.431 142.405 416.234 149.214 C 420.064 155.956 422.264 166.672 422.616 174.785 L 422.612 302.178 C 422.26 310.282 420.055 320.866 416.224 327.617 C 412.425 334.423 404.307 341.867 397.525 346.317 L 289.905 410.009 C 282.713 413.82 272.314 417.249 264.516 417.249 C 256.722 417.249 246.184 413.742 238.987 409.93 L 209.815 392.664 L 165.082 456.8 C 194.586 469.788 227.009 476.99 261.623 476.99 C 327.138 476.99 386.355 450.848 429.292 408.513 C 472.229 366.179 498.74 307.798 498.74 243.205 C 498.74 178.419 472.255 120.251 429.327 77.932 Z M 264.516 371.586 L 235.34 354.318 L 366.834 165.784 L 376.616 171.574 L 376.616 305.24 Z M 375.616 172.144 L 367.124 167.118 L 236.776 354.006 L 264.516 370.424 L 375.616 304.67 Z" style="fill: none;"></path>
  <line style="fill: rgb(216, 216, 216); stroke-width: 10px; transform-origin: 151.904px 197.201px;" x1="86.659" y1="197.269" x2="172.443" y2="197.356"></line>
  <line style="fill: rgb(216, 216, 216); stroke-width: 10px; transform-origin: 161.888px 201.676px;" x1="96.643" y1="201.744" x2="182.427" y2="201.831"></line>
  <line style="fill: rgb(216, 216, 216); stroke-width: 10px; transform-origin: 151.937px 205.452px;" x1="132.864" y1="243.592" x2="157.942" y2="292.393" transform="matrix(-1, 0, 0, -1, 0.000013, 0.000003)"></line>
  <line style="fill: rgb(216, 216, 216); stroke-width: 10px; transform-origin: 151.911px 146.092px; stroke: rgb(255, 247, 247);" x1="137.99" y1="124.052" x2="165.831" y2="168.131" transform="matrix(-1, 0, 0, -1, 0.000006, 0.00002)"></line>  
</svg>

