<?xml version="1.0" encoding="utf-8"?>
<svg viewBox="0 0 500 500" xmlns="http://www.w3.org/2000/svg" xmlns:bx="https://boxy-svg.com">
  <path d="M 497.308 244.675 C 497.308 374.067 390.923 478.96 259.691 478.96 C 128.459 478.96 22.074 374.067 22.074 244.675 C 22.074 219.198 26.198 194.671 33.825 171.708 C 36.945 172.024 40.115 172.186 43.324 172.186 C 52.661 172.186 61.661 170.814 70.111 168.27 C 71.803 183.142 79.722 198.764 89.475 208.062 C 93.678 212.069 99.034 215.714 104.987 218.685 L 104.984 303.476 C 105.331 311.549 107.498 322.154 111.304 328.825 C 115.055 335.571 122.951 342.852 129.693 347.271 L 237.289 410.958 C 244.448 414.754 254.869 418.219 262.584 418.219 C 270.304 418.219 280.565 414.843 287.718 411.049 L 395.319 347.369 C 402.069 342.944 410.108 335.585 413.856 328.842 C 417.66 322.164 419.833 311.712 420.18 303.648 L 420.184 176.276 C 419.837 168.203 417.669 157.598 413.866 150.929 C 410.112 144.183 402.217 136.9 395.475 132.482 L 287.879 68.794 C 280.72 64.998 270.299 61.533 262.584 61.533 C 254.865 61.533 244.602 64.91 237.45 68.704 L 170.504 108.323 C 160.212 102.454 147.58 98.586 135.921 98.586 C 134.336 98.586 132.732 98.658 131.119 98.796 C 131.578 95.33 131.815 91.799 131.815 88.215 C 131.815 75.505 128.839 63.455 123.513 52.657 C 162.076 26.021 209.032 10.39 259.691 10.39 C 390.923 10.39 497.308 115.283 497.308 244.675 Z M 111.312 150.91 C 109.971 153.264 108.833 156.088 107.906 159.112 C 108.417 152.973 110.539 149.417 115.695 144.502 C 116.138 144.079 116.575 143.676 117.007 143.293 C 114.705 145.795 112.71 148.395 111.312 150.91 Z M 374.184 306.425 L 262.584 372.475 L 150.984 306.425 L 150.984 224.54 C 163.035 221.563 174.647 215.422 182.367 208.062 C 193.386 197.557 202.065 178.979 202.065 162.53 C 202.065 156.747 200.992 150.702 199.123 144.836 L 262.585 107.276 L 374.184 173.329 L 374.184 306.425 Z M 150.984 173.327 L 163.96 165.647 C 163.493 171.971 161.387 175.563 156.147 180.558 C 154.363 182.259 152.689 183.641 150.984 184.745 L 150.984 173.327 Z" style="stroke-linejoin: round; stroke-linecap: round; fill-rule: evenodd; paint-order: stroke markers; fill: rgb(255, 255, 255);"/>
  <ellipse style="stroke: rgb(0, 0, 0); stroke-width: 0px; stroke-linejoin: round; stroke-linecap: round; fill: rgb(181, 80, 0);" cx="55.435" cy="87.104" rx="50" ry="50"/>
  <path d="M 252.124 91.516 Q 265.584 83.55 279.044 91.516 L 386.724 155.247 Q 400.184 163.213 400.184 179.146 L 400.184 306.606 Q 400.184 322.539 386.724 330.505 L 279.044 394.236 Q 265.584 402.202 252.124 394.236 L 144.444 330.505 Q 130.984 322.539 130.984 306.606 L 130.984 179.146 Q 130.984 163.213 144.444 155.247 Z" style="fill: none; paint-order: stroke; filter: none; stroke-miterlimit: 1; stroke-linejoin: round; stroke-linecap: round; stroke-dashoffset: -21px; stroke-width: 50px;" bx:shape="n-gon 265.584 242.876 155.423 159.326 6 0.1 1@0b0d1160"/>
  <ellipse style="stroke: rgb(0, 0, 0); stroke-width: 0px; stroke-linejoin: round; stroke-linecap: round; fill: rgb(255, 113, 0);" cx="138.817" cy="163.972" rx="37.5" ry="37.5"/>
  <path d="M 63.352 129.187 C 35.738 129.187 13.352 106.801 13.352 79.187 C 13.352 67.397 17.433 56.56 24.259 48.012 C 32.807 41.185 43.645 37.104 55.435 37.104 C 83.049 37.104 105.435 59.49 105.435 87.104 C 105.435 98.894 101.354 109.732 94.527 118.28 C 85.979 125.106 75.142 129.187 63.352 129.187 Z" style="stroke: rgb(0, 0, 0); stroke-width: 0px; stroke-linejoin: round; stroke-linecap: round; fill: rgb(255, 113, 0);"/>
  <line x1="57.625" y1="60.065" x2="75.479" y2="73.672" style="fill: rgb(216, 216, 216); stroke-width: 15px; stroke-linecap: round; stroke: rgb(255, 255, 255);"/>
  <path d="M 497.308 244.675 C 497.308 374.067 390.923 478.96 259.691 478.96 C 185.006 478.96 118.369 444.987 74.808 391.86 L 116.856 336.311 C 120.703 340.536 125.429 344.476 129.693 347.271 L 237.289 410.958 C 244.448 414.754 254.869 418.219 262.584 418.219 C 270.304 418.219 280.565 414.843 287.718 411.049 L 395.319 347.369 C 402.069 342.944 410.108 335.585 413.856 328.842 C 417.66 322.164 419.833 311.712 420.18 303.648 L 420.184 176.276 C 419.837 168.203 417.669 157.598 413.866 150.929 C 410.112 144.183 402.217 136.9 395.475 132.482 L 309.613 81.659 L 350.231 27.998 C 436.552 63.102 497.308 146.893 497.308 244.675 Z M 374.184 306.425 L 262.584 372.475 L 150.984 306.425 L 150.984 291.224 L 281.671 118.573 L 374.184 173.329 Z" style="stroke-linejoin: round; stroke-linecap: round; fill-rule: evenodd; paint-order: stroke markers; fill: rgb(208, 208, 208);"/>
  <path d="M 497.308 244.675 C 497.308 374.067 390.923 478.96 259.691 478.96 C 225.023 478.96 192.089 471.64 162.393 458.482 L 207.738 393.467 L 237.289 410.958 C 244.448 414.754 254.869 418.219 262.584 418.219 C 270.304 418.219 280.565 414.843 287.718 411.049 L 395.319 347.369 C 402.069 342.944 410.108 335.585 413.856 328.842 C 417.66 322.164 419.833 311.712 420.18 303.648 L 420.184 176.276 C 419.837 168.203 417.669 157.598 413.866 150.929 C 410.112 144.183 402.217 136.9 395.475 132.482 L 391.433 130.089 L 427.324 78.63 C 470.552 121.057 497.308 179.785 497.308 244.675 Z M 374.184 306.425 L 262.584 372.475 L 234.126 355.632 L 365.047 167.921 L 374.184 173.329 Z" style="fill: rgb(153, 153, 153);"/>
</svg>